<?xml version="1.0" encoding="UTF-8"?>
<!DOCTYPE svg PUBLIC "-//W3C//DTD SVG 1.1//EN" "http://www.w3.org/Graphics/SVG/1.1/DTD/svg11.dtd">
<!-- Creator: CorelDRAW 2019 (64-Bit) -->
<svg xmlns="http://www.w3.org/2000/svg" xml:space="preserve" width="240px" height="239px" version="1.1" style="shape-rendering:geometricPrecision; text-rendering:geometricPrecision; image-rendering:optimizeQuality; fill-rule:evenodd; clip-rule:evenodd"
viewBox="0 0 5.32 5.29"
 xmlns:xlink="http://www.w3.org/1999/xlink">
 <defs>
  <style type="text/css">
   <![CDATA[
    .fil2 {fill:black}
    .fil1 {fill:black;fill-rule:nonzero}
    .fil0 {fill:black;fill-rule:nonzero}
   ]]>
  </style>
 </defs>
 <g id="Слой_x0020_1">
  <metadata id="CorelCorpID_0Corel-Layer"/>
  <path class="fil0" d="M1.88 1.31l-0.09 0.05 -0.08 0.06 -0.07 0.07 -0.06 0.05 0.22 0.22 0.21 -0.52 -0.04 0.02 -0.09 0.05zm-0.11 0.48l-0.22 -0.22 -0.05 0.06 -0.07 0.08 -0.05 0.08 -0.06 0.08 -0.04 0.09 -0.02 0.05 0.51 -0.22zm2.34 0.34l-0.02 -0.04 -0.21 0.51 0.31 0 0 -0.08 -0.01 -0.1 -0.02 -0.1 -0.02 -0.1 -0.03 -0.09zm0.08 0.59l0 -0.08 -0.31 0 0.22 0.52 0.02 -0.05 0.03 -0.09 0.02 -0.1 0.02 -0.1 0 -0.1zm-2.03 -1.54l-0.05 0.02 0.52 0.21 0 -0.31 -0.08 0 -0.1 0.01 -0.1 0.02c-0.07,0.01 -0.12,0.03 -0.19,0.05zm0.59 -0.08l-0.08 0 0 0.31 0.51 -0.22 -0.04 -0.02 -0.1 -0.03 -0.09 -0.02 -0.1 -0.01 -0.1 -0.01zm-0.18 3.07l0.08 0 0 -0.31 -0.51 0.22 0.04 0.01 0.1 0.03 0.09 0.02 0.1 0.02 0.1 0.01zm0.12 -0.31l0 0.31 0.08 -0.01 0.1 0c0.11,-0.02 0.19,-0.04 0.29,-0.08l0.05 -0.01 -0.52 -0.21zm-0.08 -2.41l-0.55 -0.23 -0.22 0.56 0.46 0.01 0.31 -0.34zm0.91 2.06l-0.21 0.51 0.04 -0.02 0.09 -0.04c0.06,-0.04 0.11,-0.07 0.17,-0.12l0.07 -0.06 0.06 -0.06 -0.22 -0.21zm-0.26 0.53l0.22 -0.55 -0.46 -0.02 -0.31 0.35 0.55 0.22zm0.58 -1.45l0.23 -0.55 -0.55 -0.23 -0.02 0.47 0.34 0.31zm-0.31 -0.81l0.52 0.2 -0.02 -0.04 -0.05 -0.09c-0.04,-0.06 -0.07,-0.11 -0.11,-0.16l-0.06 -0.08 -0.06 -0.06 -0.22 0.23zm-2.28 1.45l0.55 0.22 0.02 -0.46 -0.34 -0.31 -0.23 0.55zm0.54 0.26l-0.52 -0.21 0.02 0.05 0.05 0.08 0.05 0.09 0.06 0.08 0.06 0.08 0.06 0.05 0.22 -0.22zm-0.56 -0.31l0.21 -0.52 -0.32 0.01 0.01 0.07 0.01 0.1 0.01 0.1c0.02,0.09 0.04,0.16 0.08,0.24zm1.42 -1.71l-0.29 0.32 0.58 0 -0.29 -0.32zm0.58 -0.26l-0.54 0.24 0.31 0.34 0.46 -0.03 -0.23 -0.55zm0.06 0.02l0.21 0.52 0.22 -0.23 -0.06 -0.05 -0.07 -0.06 -0.09 -0.06 -0.08 -0.05 -0.09 -0.05 -0.04 -0.02zm0.18 0.58l-0.43 0.02 0.42 0.41 0.01 -0.43zm0.35 0.81l-0.32 -0.29 0.01 0.59 0.31 -0.3zm0.02 0.04l-0.33 0.32 0.02 0.46 0.55 -0.23 -0.24 -0.55zm0.22 0.6l-0.51 0.21 0.22 0.22 0.05 -0.05c0.07,-0.09 0.12,-0.15 0.18,-0.25 0.02,-0.04 0.04,-0.08 0.06,-0.13zm-0.57 0.19l-0.02 -0.43 -0.41 0.41 0.43 0.02zm-1.23 -1.62l-0.43 -0.01 0.02 0.43 0.41 -0.42zm-1.02 0.23l0.24 0.55 0.33 -0.32 -0.02 -0.46 -0.55 0.23zm0.2 0.56l-0.22 -0.51 -0.02 0.04 -0.03 0.1 -0.02 0.1c-0.02,0.1 -0.02,0.17 -0.03,0.27l0.32 0zm0.06 0.02l0.32 0.29 -0.01 -0.58 -0.31 0.29zm0.36 0.39l-0.01 0.43 0.43 -0.02 -0.42 -0.41zm0.46 -1.19l-0.46 0.47 0 0.66 0.47 0.47 0.67 -0.01 0.46 -0.47 0 -0.67 -0.48 -0.46 -0.66 0.01zm0.35 1.95l0.29 -0.32 -0.59 0.01 0.3 0.31zm-0.58 0.26l0.54 -0.23 -0.31 -0.34 -0.46 0.02 0.23 0.55zm-0.06 -0.02l-0.21 -0.51 -0.22 0.22 0.06 0.06 0.07 0.06 0.09 0.06 0.08 0.05 0.09 0.05 0.04 0.01zm-0.95 -1.38c0,-0.21 0.04,-0.42 0.11,-0.61l0 0c0.08,-0.19 0.2,-0.37 0.34,-0.52 0.15,-0.14 0.32,-0.26 0.51,-0.34 0.19,-0.08 0.4,-0.13 0.61,-0.13 0.2,0 0.41,0.04 0.6,0.12l0 0c0.19,0.07 0.37,0.19 0.52,0.34 0.14,0.14 0.26,0.31 0.34,0.5l0.01 0.01c0.08,0.19 0.12,0.39 0.12,0.6 0,0.21 -0.04,0.41 -0.11,0.61 -0.08,0.19 -0.2,0.36 -0.34,0.51 -0.15,0.15 -0.32,0.27 -0.51,0.35 -0.19,0.08 -0.4,0.12 -0.61,0.12 -0.2,0 -0.41,-0.03 -0.6,-0.11 -0.2,-0.08 -0.37,-0.2 -0.52,-0.34 -0.15,-0.15 -0.27,-0.32 -0.35,-0.51l0 0c-0.08,-0.19 -0.12,-0.4 -0.12,-0.6z"/>
  <path class="fil1" d="M3.26 0.08l-0.18 -0.03 -0.02 0.1 0.09 0.02c0.04,0.01 0.07,0.02 0.09,0.05 0.01,0.02 0.02,0.04 0.01,0.08 0,0.03 -0.02,0.05 -0.04,0.07 -0.03,0.01 -0.06,0.02 -0.09,0.01l-0.14 -0.02 0.06 -0.36 0.22 0.04 0 0.04zm-0.2 0.11l-0.03 0.14 0.09 0.01c0.02,0.01 0.04,0.01 0.06,-0.01 0.01,-0.01 0.02,-0.02 0.03,-0.04 0,-0.02 0,-0.04 -0.01,-0.05 -0.02,-0.02 -0.03,-0.03 -0.06,-0.03l-0.08 -0.02zm0.65 0l-0.13 0.34 -0.05 -0.02 0.12 -0.3 -0.12 -0.05 -0.06 0.13c-0.02,0.05 -0.04,0.08 -0.05,0.1 -0.02,0.02 -0.04,0.03 -0.05,0.04 -0.02,0 -0.04,0 -0.06,-0.01l-0.02 0 0.02 -0.04 0.01 0c0.01,0.01 0.02,0.01 0.03,0 0.02,0 0.03,-0.02 0.04,-0.03 0.01,-0.02 0.02,-0.05 0.04,-0.08l0.07 -0.16 0.21 0.08zm0.23 0.34l-0.14 -0.08 -0.06 0.11 0.16 0.09 -0.02 0.04 -0.2 -0.12 0.18 -0.31 0.2 0.11 -0.02 0.03 -0.16 -0.09 -0.06 0.11 0.14 0.07 -0.02 0.04zm0.29 0.27c-0.02,0.03 -0.05,0.05 -0.09,0.05 -0.03,0 -0.06,-0.01 -0.09,-0.04 -0.03,-0.02 -0.05,-0.06 -0.05,-0.1 0,-0.04 0.01,-0.08 0.04,-0.12l0.03 -0.03c0.02,-0.02 0.04,-0.04 0.06,-0.05 0.03,-0.02 0.06,-0.02 0.08,-0.02 0.03,0 0.05,0.01 0.07,0.03 0.04,0.03 0.05,0.05 0.06,0.08 0,0.04 0,0.07 -0.03,0.1l-0.03 -0.03c0.01,-0.02 0.02,-0.05 0.01,-0.07 0,-0.01 -0.01,-0.03 -0.03,-0.05 -0.02,-0.02 -0.05,-0.02 -0.08,-0.01 -0.03,0 -0.05,0.02 -0.08,0.06l-0.02 0.02c-0.02,0.03 -0.04,0.06 -0.04,0.09 0,0.03 0.01,0.05 0.03,0.07 0.03,0.02 0.05,0.03 0.06,0.03 0.02,0 0.04,-0.01 0.07,-0.04l0.03 0.03zm0.18 0.11l-0.03 -0.03 -0.12 0.11 -0.03 -0.03 0.26 -0.26 0.04 0.04 -0.12 0.11 0.03 0.03 0.2 -0.02 0.04 0.04 -0.22 0.02 -0.03 0.24 -0.04 -0.04 0.02 -0.21zm0.35 0.79l-0.02 -0.04 0.29 -0.15 -0.08 -0.16 -0.29 0.15 -0.03 -0.05 0.33 -0.16 0.12 0.24 -0.32 0.17zm0.29 0.31c-0.03,0.01 -0.06,0.02 -0.09,0.02 -0.03,-0.01 -0.06,-0.02 -0.08,-0.03 -0.02,-0.02 -0.03,-0.04 -0.04,-0.07 -0.01,-0.03 -0.01,-0.05 0,-0.08 0,-0.02 0.01,-0.05 0.04,-0.07 0.02,-0.02 0.04,-0.03 0.08,-0.04l0.02 -0.01c0.03,-0.01 0.07,-0.02 0.09,-0.01 0.03,0 0.06,0.01 0.08,0.03 0.02,0.01 0.03,0.03 0.04,0.06 0.01,0.03 0.02,0.05 0.01,0.08 -0.01,0.03 -0.02,0.05 -0.04,0.07 -0.02,0.02 -0.05,0.03 -0.09,0.05l-0.02 0zm0.01 -0.05c0.04,-0.01 0.07,-0.03 0.09,-0.06 0.01,-0.02 0.01,-0.05 0,-0.08 0,-0.02 -0.02,-0.04 -0.05,-0.05 -0.03,-0.01 -0.06,-0.01 -0.1,0l-0.03 0.01c-0.04,0.01 -0.06,0.03 -0.08,0.06 -0.02,0.02 -0.02,0.05 -0.01,0.08 0.01,0.03 0.03,0.05 0.05,0.06 0.03,0 0.06,0 0.1,-0.01l0.03 -0.01zm-0.2 0.53l0 -0.05 0.09 -0.01 -0.04 -0.26 -0.08 0.01 -0.01 -0.04 0.13 -0.02 0 0.03c0.02,0.01 0.05,0.02 0.08,0.03 0.03,0 0.06,0 0.1,0l0.15 -0.01 0.03 0.22 -0.32 0.04 0 0.04 -0.13 0.02zm0.1 -0.29l0.02 0.18 0.28 -0.04 -0.01 -0.12 -0.11 0.01c-0.04,0 -0.08,0 -0.11,0 -0.03,-0.01 -0.05,-0.02 -0.07,-0.03zm0.16 0.64c-0.04,0 -0.07,-0.01 -0.09,-0.02 -0.03,-0.01 -0.05,-0.03 -0.06,-0.05 -0.02,-0.03 -0.02,-0.05 -0.02,-0.08 0,-0.03 0.01,-0.06 0.02,-0.08 0.02,-0.02 0.04,-0.04 0.06,-0.05 0.03,-0.01 0.06,-0.01 0.09,-0.01l0.03 0c0.04,0 0.07,0 0.09,0.02 0.03,0.01 0.05,0.03 0.06,0.05 0.02,0.02 0.02,0.05 0.02,0.08 0,0.03 -0.01,0.05 -0.02,0.07 -0.02,0.03 -0.04,0.04 -0.06,0.05 -0.03,0.01 -0.06,0.02 -0.1,0.02l-0.02 0zm0.02 -0.05c0.05,0 0.08,-0.01 0.1,-0.02 0.03,-0.02 0.04,-0.04 0.04,-0.07 0,-0.03 -0.01,-0.06 -0.03,-0.08 -0.02,-0.01 -0.06,-0.02 -0.1,-0.03l-0.02 0c-0.05,0 -0.08,0.01 -0.1,0.03 -0.03,0.01 -0.04,0.04 -0.04,0.07 0,0.03 0.01,0.05 0.03,0.07 0.02,0.02 0.06,0.03 0.1,0.03l0.02 0zm0.08 0.42l0.03 -0.18 -0.11 -0.02 -0.01 0.09c-0.01,0.04 -0.03,0.07 -0.05,0.08 -0.02,0.02 -0.05,0.03 -0.08,0.02 -0.03,0 -0.06,-0.02 -0.07,-0.04 -0.02,-0.03 -0.02,-0.06 -0.02,-0.09l0.03 -0.14 0.36 0.06 -0.04 0.22 -0.04 0zm-0.12 -0.2l-0.13 -0.03 -0.02 0.09c0,0.02 0,0.04 0.01,0.06 0.01,0.01 0.03,0.02 0.05,0.03 0.02,0 0.04,0 0.05,-0.01 0.01,-0.02 0.02,-0.03 0.03,-0.06l0.01 -0.08zm-0.32 0.52l0.01 -0.04 0.16 0.05 0.06 -0.17 -0.16 -0.06 0.02 -0.04 0.34 0.12 -0.01 0.04 -0.15 -0.05 -0.06 0.17 0.15 0.05 -0.02 0.05 -0.34 -0.12zm0.11 0.25l-0.04 0.08c-0.02,0.04 -0.04,0.06 -0.07,0.07 -0.03,0 -0.06,0 -0.09,-0.02 -0.02,-0.01 -0.04,-0.03 -0.05,-0.06 0,-0.03 0,-0.06 0.02,-0.09l0.07 -0.12 0.32 0.18 -0.03 0.04 -0.13 -0.08zm-0.03 -0.02l-0.12 -0.06 -0.04 0.07c-0.02,0.02 -0.02,0.04 -0.01,0.06 0,0.02 0.01,0.03 0.03,0.04 0.02,0.01 0.03,0.02 0.05,0.01 0.02,0 0.03,-0.02 0.04,-0.04l0.05 -0.08zm-0.31 0.18l0.03 -0.04 0.31 0.18 -0.02 0.04 -0.32 -0.18zm0.06 0.5l-0.03 0.04 -0.28 -0.24 0.03 -0.04 0.22 0.19 -0.1 -0.32 0.03 -0.04 0.28 0.24 -0.03 0.04 -0.21 -0.19 0.09 0.32zm0.08 0.05c-0.02,-0.01 -0.03,-0.03 -0.03,-0.05 0,-0.01 0.01,-0.03 0.03,-0.05 0.01,-0.02 0.03,-0.03 0.05,-0.03 0.01,0 0.03,0 0.05,0.02l-0.03 0.03c-0.01,-0.01 -0.02,-0.01 -0.03,-0.01 -0.01,0 -0.01,0 -0.02,0.01 -0.01,0.01 -0.01,0.02 -0.01,0.03 0,0.01 0,0.02 0.01,0.02l-0.02 0.03zm-0.93 0.16l0.04 -0.03 0.09 0.15 0.16 -0.1 -0.09 -0.14 0.04 -0.03 0.2 0.31 -0.05 0.02 -0.08 -0.13 -0.15 0.1 0.08 0.13 -0.04 0.03 -0.2 -0.31zm-0.24 0.22l0.13 -0.06 0 -0.11 0.04 -0.02 0.03 0.39 -0.04 0.02 -0.28 -0.27 0.04 -0.02 0.08 0.07zm0.14 -0.02l-0.12 0.05 0.13 0.13 -0.01 -0.18zm-0.46 0.35l0.12 -0.03 -0.09 -0.31 0.04 -0.02 0.09 0.32 0.12 -0.04 0.01 0.04 -0.27 0.08 -0.02 -0.04zm-0.27 -0.13l-0.05 0.22 -0.06 0 0.09 -0.31c0.01,-0.03 0.01,-0.04 0.02,-0.05 0.01,-0.01 0.01,-0.02 0.02,-0.02 0.01,-0.01 0.03,-0.01 0.04,-0.01 0.01,0 0.02,0 0.03,0l0 0.04 -0.02 0c-0.02,0 -0.03,0.01 -0.04,0.03l0 0.01 -0.01 0.02 0.16 0.26 -0.06 0 -0.12 -0.19zm-0.29 0l0.01 -0.14 0.04 0 -0.01 0.36 -0.13 0c-0.04,0 -0.07,-0.01 -0.09,-0.03 -0.02,-0.02 -0.04,-0.05 -0.03,-0.09 0,-0.03 0.01,-0.06 0.03,-0.08 0.02,-0.01 0.06,-0.02 0.1,-0.02l0.08 0zm0 0.04l-0.08 0c-0.03,0 -0.05,0 -0.06,0.01 -0.02,0.02 -0.03,0.03 -0.03,0.06 0,0.02 0.01,0.03 0.02,0.05 0.02,0.01 0.03,0.02 0.06,0.02l0.09 0 0 -0.14zm-0.47 -0.14l0.15 0.03 0.05 -0.09 0.05 0.01 -0.2 0.33 -0.05 0 -0.07 -0.39 0.05 0.01 0.02 0.1zm0.13 0.07l-0.13 -0.03 0.04 0.18 0.09 -0.15zm-0.65 0.06l0.12 -0.35 0.04 0.02 -0.1 0.31 0.12 0.04 0.05 -0.14c0.02,-0.04 0.04,-0.07 0.05,-0.1 0.02,-0.02 0.03,-0.03 0.05,-0.04 0.02,0 0.04,0 0.06,0.01l0.02 0 -0.02 0.04 -0.01 0c-0.01,-0.01 -0.02,-0.01 -0.03,0 -0.02,0 -0.03,0.02 -0.04,0.03 -0.01,0.02 -0.02,0.05 -0.03,0.09l-0.07 0.16 -0.21 -0.07zm-0.13 -0.23l-0.08 -0.04c-0.03,-0.02 -0.06,-0.05 -0.06,-0.07 -0.01,-0.03 -0.01,-0.06 0.01,-0.09 0.01,-0.03 0.04,-0.04 0.06,-0.05 0.03,0 0.06,0 0.1,0.02l0.12 0.07 -0.19 0.31 -0.04 -0.02 0.08 -0.13zm0.02 -0.03l0.06 -0.12 -0.07 -0.05c-0.02,-0.01 -0.04,-0.01 -0.06,-0.01 -0.02,0.01 -0.03,0.02 -0.04,0.04 -0.01,0.02 -0.01,0.03 -0.01,0.05 0.01,0.02 0.02,0.03 0.04,0.04l0.08 0.05zm-0.39 -0.48l0.03 0.03 -0.1 0.13 0.14 0.12 0.11 -0.14 0.04 0.03 -0.23 0.29 -0.04 -0.03 0.1 -0.12 -0.14 -0.12 -0.1 0.13 -0.04 -0.03 0.23 -0.29zm-0.4 -0.16c0.03,-0.02 0.05,-0.04 0.08,-0.05 0.03,-0.01 0.05,-0.01 0.08,-0.01 0.02,0.01 0.05,0.02 0.07,0.05 0.02,0.02 0.03,0.04 0.03,0.07 0.01,0.02 0.01,0.05 0,0.07 -0.01,0.03 -0.03,0.06 -0.06,0.08l-0.01 0.02c-0.03,0.02 -0.06,0.04 -0.08,0.05 -0.03,0.01 -0.06,0.01 -0.08,0.01 -0.03,-0.01 -0.05,-0.02 -0.07,-0.05 -0.02,-0.02 -0.04,-0.04 -0.04,-0.07 -0.01,-0.02 0,-0.05 0.01,-0.08 0.01,-0.02 0.03,-0.05 0.05,-0.07l0.02 -0.02zm0.02 0.05c-0.04,0.03 -0.05,0.06 -0.06,0.09 0,0.03 0.01,0.05 0.03,0.08 0.02,0.02 0.04,0.03 0.07,0.02 0.03,0 0.06,-0.01 0.09,-0.04l0.02 -0.02c0.03,-0.03 0.05,-0.06 0.05,-0.09 0.01,-0.03 0,-0.05 -0.02,-0.08 -0.02,-0.02 -0.05,-0.03 -0.08,-0.02 -0.02,0 -0.05,0.01 -0.08,0.04l-0.02 0.02zm-0.3 -0.1l0.19 -0.26 -0.31 0.06 -0.04 -0.05 0.31 -0.2 0.03 0.04 -0.12 0.08 -0.14 0.08 0.32 -0.06 0.02 0.03 -0.19 0.26 0.13 -0.09 0.12 -0.07 0.02 0.04 -0.3 0.19 -0.04 -0.05zm-0.08 -0.61l-0.23 0 -0.02 -0.05 0.33 0.01c0.02,0 0.04,0 0.05,0.01 0.01,0 0.01,0.01 0.02,0.01 0.01,0.01 0.02,0.02 0.02,0.04 0.01,0.01 0.01,0.02 0.01,0.02l-0.04 0.01 0 -0.02c-0.01,-0.01 -0.02,-0.02 -0.04,-0.03l-0.02 0 -0.02 0 -0.21 0.22 -0.02 -0.05 0.17 -0.17zm-0.35 -0.72l0.02 0.17 0.11 -0.01 -0.01 -0.09c0,-0.04 0,-0.07 0.02,-0.1 0.02,-0.02 0.04,-0.03 0.07,-0.04 0.03,0 0.06,0.01 0.08,0.02 0.03,0.02 0.04,0.05 0.05,0.09l0.01 0.14 -0.36 0.04 -0.03 -0.22 0.04 0zm0.17 0.15l0.14 -0.02 -0.01 -0.08c-0.01,-0.03 -0.01,-0.04 -0.03,-0.06 -0.01,-0.01 -0.03,-0.01 -0.05,-0.01 -0.02,0 -0.04,0.01 -0.05,0.03 -0.01,0.01 -0.01,0.03 -0.01,0.05l0.01 0.09zm0.01 -0.37l0.15 0 -0.01 0.05 -0.36 -0.01 0 -0.13c0,-0.04 0.02,-0.07 0.04,-0.1 0.02,-0.02 0.04,-0.03 0.08,-0.03 0.03,0 0.06,0.01 0.08,0.04 0.02,0.02 0.03,0.05 0.03,0.09l-0.01 0.09zm-0.04 0l0.01 -0.09c0,-0.02 -0.01,-0.04 -0.02,-0.06 -0.01,-0.01 -0.03,-0.02 -0.05,-0.02 -0.02,0 -0.04,0.01 -0.06,0.02 -0.01,0.01 -0.02,0.03 -0.02,0.05l0 0.09 0.14 0.01zm-0.1 -0.6l0.01 -0.05 0.35 0.08 -0.01 0.05 -0.27 -0.06 0.23 0.23 -0.01 0.05 -0.35 -0.08 0.01 -0.05 0.27 0.07 -0.23 -0.24zm0.16 -0.47l0.33 0.13 -0.01 0.05 -0.31 -0.12 -0.04 0.12 0.13 0.06c0.04,0.02 0.07,0.04 0.09,0.05 0.02,0.02 0.04,0.04 0.04,0.05 0.01,0.02 0.01,0.04 0,0.06l-0.01 0.02 -0.03 -0.02 0 0c0,-0.02 0,-0.03 0,-0.04 -0.01,-0.01 -0.02,-0.03 -0.03,-0.04 -0.02,-0.01 -0.05,-0.02 -0.09,-0.04l-0.16 -0.07 0.09 -0.21zm0.22 -0.4l0.31 0.2 -0.02 0.04 -0.28 -0.18 -0.07 0.11 0.12 0.09c0.04,0.02 0.07,0.05 0.08,0.07 0.02,0.02 0.03,0.04 0.03,0.05 0,0.02 0,0.04 -0.02,0.06l0 0.01 -0.04 -0.02 0.01 -0.01c0,-0.01 0.01,-0.02 0,-0.03 0,-0.02 -0.01,-0.03 -0.02,-0.04 -0.02,-0.02 -0.04,-0.04 -0.07,-0.06l-0.15 -0.1 0.12 -0.19zm0.25 -0.31l0.03 -0.03 0.28 0.24 -0.04 0.03 -0.21 -0.18 0.1 0.32 -0.03 0.03 -0.28 -0.23 0.03 -0.04 0.21 0.18 -0.09 -0.32zm0.48 -0.08l-0.11 0.1 0.03 0.1 -0.04 0.03 -0.13 -0.37 0.03 -0.02 0.35 0.18 -0.04 0.03 -0.09 -0.05zm-0.13 0.06l0.09 -0.08 -0.15 -0.08 0.06 0.16zm0.56 -0.22l-0.04 0.03 -0.08 -0.15 -0.16 0.09 0.08 0.15 -0.04 0.02 -0.18 -0.31 0.04 -0.03 0.08 0.14 0.16 -0.09 -0.08 -0.14 0.04 -0.02 0.18 0.31zm0.21 -0.44l-0.11 0.05 0.12 0.3 -0.05 0.02 -0.11 -0.31 -0.11 0.05 -0.02 -0.04 0.26 -0.1 0.02 0.03zm0.28 0.11l0.03 -0.23 0.06 -0.01 -0.06 0.32c0,0.03 -0.01,0.04 -0.01,0.05 -0.01,0.01 -0.02,0.02 -0.02,0.02 -0.01,0.01 -0.03,0.02 -0.04,0.02 -0.01,0 -0.02,0 -0.03,0l0 -0.04 0.02 0c0.02,0 0.03,-0.01 0.03,-0.03l0.01 -0.02 0 -0.02 -0.18 -0.24 0.05 -0.01 0.14 0.19z"/>
  <path class="fil2" d="M2.6 0.09c0.02,0 0.04,0.02 0.04,0.04 0,0.02 -0.02,0.04 -0.04,0.04 -0.02,0 -0.04,-0.02 -0.04,-0.04 0,-0.02 0.02,-0.04 0.04,-0.04z"/>
 </g>
</svg>
