<?xml version="1.0" encoding="UTF-8"?>
<!DOCTYPE svg PUBLIC "-//W3C//DTD SVG 1.1//EN" "http://www.w3.org/Graphics/SVG/1.1/DTD/svg11.dtd">
<!-- Creator: CorelDRAW 2019 (64-Bit) -->
<svg xmlns="http://www.w3.org/2000/svg" xml:space="preserve" width="500px" height="497px" version="1.1" style="shape-rendering:geometricPrecision; text-rendering:geometricPrecision; image-rendering:optimizeQuality; fill-rule:evenodd; clip-rule:evenodd"
viewBox="0 0 11.09 11.03"
 xmlns:xlink="http://www.w3.org/1999/xlink">
 <defs>
  <style type="text/css">
   <![CDATA[
    .fil2 {fill:black}
    .fil1 {fill:black;fill-rule:nonzero}
    .fil0 {fill:black;fill-rule:nonzero}
   ]]>
  </style>
 </defs>
 <g id="Слой_x0020_1">
  <metadata id="CorelCorpID_0Corel-Layer"/>
  <path class="fil0" d="M3.91 2.73l-0.17 0.11 -0.17 0.12 -0.16 0.14 -0.12 0.11 0.46 0.46 0.44 -1.08 -0.09 0.04 -0.19 0.1zm-0.22 1l-0.46 -0.46 -0.11 0.12 -0.13 0.16 -0.12 0.18 -0.11 0.17 -0.1 0.19 -0.04 0.09 1.07 -0.45zm4.87 0.71l-0.03 -0.1 -0.44 1.08 0.65 -0.01 -0.01 -0.16 -0.02 -0.2 -0.03 -0.21 -0.05 -0.2 -0.07 -0.2zm0.18 1.22l0 -0.16 -0.65 0.01 0.46 1.07 0.03 -0.1 0.06 -0.2 0.05 -0.2 0.03 -0.21 0.02 -0.21zm-4.25 -3.2l-0.09 0.04 1.08 0.44 -0.01 -0.65 -0.16 0 -0.21 0.02 -0.21 0.04c-0.15,0.04 -0.25,0.07 -0.4,0.11zm1.23 -0.17l-0.16 0 0 0.65 1.07 -0.46 -0.09 -0.03 -0.2 -0.06 -0.2 -0.05 -0.21 -0.03 -0.21 -0.02zm-0.36 6.39l0.16 0 0 -0.65 -1.07 0.46 0.09 0.04 0.2 0.05 0.2 0.05 0.21 0.03 0.21 0.02zm0.25 -0.65l0 0.65 0.16 0 0.21 -0.02c0.23,-0.04 0.39,-0.08 0.61,-0.15l0.09 -0.04 -1.07 -0.44zm-0.17 -5.01l-1.14 -0.47 -0.46 1.15 0.96 0.03 0.64 -0.71zm1.89 4.28l-0.44 1.08 0.1 -0.04 0.18 -0.1c0.13,-0.08 0.22,-0.15 0.34,-0.23l0.16 -0.14 0.12 -0.11 -0.46 -0.46zm-0.55 1.12l0.46 -1.15 -0.96 -0.03 -0.64 0.71 1.14 0.47zm1.22 -3.03l0.48 -1.15 -1.16 -0.46 -0.03 0.96 0.71 0.65zm-0.64 -1.69l1.08 0.43 -0.04 -0.09 -0.1 -0.18c-0.08,-0.13 -0.15,-0.23 -0.24,-0.35l-0.13 -0.16 -0.12 -0.11 -0.45 0.46zm-4.75 3.03l1.15 0.46 0.03 -0.96 -0.71 -0.65 -0.47 1.15zm1.11 0.54l-1.08 -0.43 0.04 0.09 0.1 0.18 0.11 0.18 0.13 0.17 0.13 0.16 0.12 0.11 0.45 -0.46zm-1.17 -0.65l0.44 -1.07 -0.65 0.01 0.01 0.16 0.02 0.21 0.03 0.2c0.05,0.18 0.09,0.33 0.15,0.49zm2.97 -3.55l-0.6 0.66 1.21 -0.01 -0.61 -0.65zm1.22 -0.54l-1.14 0.49 0.65 0.7 0.97 -0.05 -0.48 -1.14zm0.11 0.04l0.45 1.07 0.45 -0.47 -0.12 -0.11 -0.16 -0.13 -0.17 -0.12 -0.18 -0.11 -0.18 -0.09 -0.09 -0.04zm0.38 1.19l-0.89 0.05 0.87 0.85 0.02 -0.9zm0.73 1.7l-0.67 -0.6 0.01 1.22 0.66 -0.62zm0.05 0.08l-0.71 0.66 0.05 0.96 1.15 -0.48 -0.49 -1.14zm0.45 1.25l-1.07 0.45 0.46 0.46 0.11 -0.12c0.15,-0.18 0.24,-0.31 0.36,-0.51 0.05,-0.1 0.1,-0.18 0.14,-0.28zm-1.2 0.39l-0.04 -0.9 -0.85 0.87 0.89 0.03zm-2.55 -3.36l-0.89 -0.03 0.04 0.9 0.85 -0.87zm-2.12 0.47l0.49 1.14 0.7 -0.66 -0.05 -0.96 -1.14 0.48zm0.4 1.17l-0.46 -1.07 -0.03 0.1 -0.06 0.2 -0.05 0.2c-0.03,0.21 -0.04,0.37 -0.05,0.58l0.65 -0.01zm0.13 0.04l0.67 0.61 -0.01 -1.22 -0.66 0.61zm0.76 0.81l-0.03 0.9 0.89 -0.05 -0.86 -0.85zm0.96 -2.49l-0.97 0.99 0.01 1.38 0.98 0.97 1.39 -0.01 0.96 -0.99 -0.01 -1.38 -0.98 -0.97 -1.38 0.01zm0.72 4.08l0.6 -0.66 -1.21 0.01 0.61 0.65zm-1.21 0.54l1.14 -0.49 -0.66 -0.7 -0.96 0.04 0.48 1.15zm-0.12 -0.04l-0.44 -1.07 -0.46 0.47 0.12 0.11 0.16 0.13 0.17 0.12 0.18 0.11 0.18 0.09 0.09 0.04zm-1.98 -2.89c0,-0.43 0.07,-0.86 0.24,-1.26l0 0c0.16,-0.4 0.4,-0.77 0.7,-1.07 0.31,-0.31 0.67,-0.56 1.06,-0.73 0.4,-0.17 0.83,-0.25 1.26,-0.26 0.43,0 0.86,0.08 1.26,0.24l0.01 0c0.4,0.16 0.76,0.41 1.07,0.71 0.31,0.3 0.55,0.66 0.72,1.06l0 0c0.17,0.4 0.26,0.83 0.26,1.26 0.01,0.43 -0.07,0.86 -0.23,1.26 -0.17,0.4 -0.41,0.77 -0.71,1.07 -0.3,0.31 -0.67,0.56 -1.06,0.73 -0.4,0.17 -0.83,0.25 -1.26,0.26 -0.43,0 -0.87,-0.08 -1.27,-0.24 -0.39,-0.16 -0.76,-0.41 -1.07,-0.71 -0.3,-0.3 -0.55,-0.66 -0.72,-1.06l0 0c-0.17,-0.4 -0.26,-0.83 -0.26,-1.26z"/>
  <path class="fil1" d="M6.78 0.16l-0.36 -0.06 -0.04 0.22 0.19 0.04c0.08,0.01 0.13,0.04 0.17,0.09 0.04,0.05 0.05,0.1 0.04,0.17 -0.01,0.07 -0.05,0.12 -0.1,0.15 -0.05,0.03 -0.11,0.04 -0.19,0.03l-0.29 -0.05 0.14 -0.75 0.46 0.08 -0.02 0.08zm-0.41 0.24l-0.05 0.28 0.18 0.04c0.05,0 0.09,0 0.12,-0.02 0.03,-0.02 0.05,-0.06 0.06,-0.1 0.01,-0.04 0,-0.08 -0.02,-0.11 -0.03,-0.03 -0.06,-0.04 -0.11,-0.05l-0.18 -0.04zm1.36 -0.01l-0.28 0.71 -0.09 -0.04 0.25 -0.63 -0.26 -0.1 -0.12 0.28c-0.04,0.09 -0.08,0.16 -0.11,0.2 -0.03,0.04 -0.07,0.07 -0.11,0.08 -0.03,0.01 -0.07,0.01 -0.12,-0.01l-0.03 -0.01 0.03 -0.08 0.02 0.01c0.03,0.01 0.06,0 0.08,-0.01 0.02,-0.01 0.05,-0.03 0.07,-0.06 0.02,-0.04 0.05,-0.09 0.09,-0.17l0.15 -0.34 0.43 0.17zm0.48 0.71l-0.29 -0.16 -0.13 0.23 0.33 0.19 -0.04 0.07 -0.42 -0.24 0.38 -0.66 0.42 0.24 -0.05 0.07 -0.32 -0.19 -0.12 0.22 0.28 0.16 -0.04 0.07zm0.61 0.58c-0.06,0.05 -0.12,0.08 -0.19,0.09 -0.06,0 -0.13,-0.02 -0.19,-0.07 -0.07,-0.06 -0.11,-0.13 -0.11,-0.21 0,-0.09 0.03,-0.17 0.09,-0.26l0.05 -0.05c0.04,-0.06 0.09,-0.1 0.14,-0.13 0.06,-0.02 0.11,-0.03 0.16,-0.03 0.06,0.01 0.11,0.03 0.16,0.07 0.06,0.05 0.1,0.1 0.11,0.17 0.01,0.07 -0.01,0.13 -0.05,0.2l-0.08 -0.06c0.03,-0.06 0.04,-0.1 0.04,-0.14 -0.01,-0.04 -0.03,-0.08 -0.07,-0.11 -0.05,-0.04 -0.11,-0.05 -0.17,-0.04 -0.05,0.02 -0.11,0.06 -0.16,0.13l-0.05 0.06c-0.05,0.06 -0.08,0.12 -0.08,0.18 0,0.06 0.02,0.11 0.07,0.15 0.04,0.04 0.08,0.05 0.12,0.05 0.04,0 0.08,-0.02 0.13,-0.07l0.08 0.07zm0.37 0.21l-0.06 -0.06 -0.25 0.23 -0.07 -0.07 0.55 -0.52 0.07 0.07 -0.24 0.23 0.05 0.06 0.43 -0.04 0.09 0.09 -0.47 0.04 -0.07 0.5 -0.08 -0.09 0.05 -0.44zm0.73 1.65l-0.05 -0.09 0.6 -0.31 -0.17 -0.33 -0.6 0.31 -0.05 -0.09 0.68 -0.35 0.26 0.51 -0.67 0.35zm0.61 0.65c-0.07,0.03 -0.14,0.04 -0.2,0.03 -0.06,0 -0.11,-0.02 -0.15,-0.06 -0.05,-0.03 -0.08,-0.08 -0.1,-0.14 -0.02,-0.05 -0.02,-0.11 -0.01,-0.16 0.02,-0.05 0.04,-0.1 0.09,-0.14 0.04,-0.05 0.1,-0.08 0.16,-0.1l0.06 -0.02c0.07,-0.02 0.13,-0.03 0.19,-0.03 0.06,0.01 0.11,0.03 0.16,0.07 0.04,0.03 0.07,0.08 0.09,0.13 0.02,0.06 0.02,0.12 0.01,0.17 -0.01,0.05 -0.04,0.1 -0.09,0.14 -0.04,0.04 -0.1,0.08 -0.17,0.1l-0.04 0.01zm0.01 -0.11c0.09,-0.02 0.15,-0.06 0.18,-0.11 0.03,-0.05 0.04,-0.11 0.02,-0.17 -0.02,-0.06 -0.06,-0.1 -0.12,-0.12 -0.05,-0.02 -0.12,-0.01 -0.2,0.01l-0.06 0.02c-0.08,0.03 -0.14,0.07 -0.17,0.12 -0.04,0.05 -0.05,0.11 -0.03,0.17 0.02,0.06 0.06,0.1 0.12,0.12 0.05,0.01 0.12,0.01 0.21,-0.02l0.05 -0.02zm-0.41 1.11l-0.01 -0.1 0.19 -0.02 -0.07 -0.54 -0.19 0.02 -0.01 -0.1 0.27 -0.03 0 0.06c0.04,0.02 0.1,0.04 0.16,0.06 0.07,0.01 0.13,0.01 0.21,0.01l0.32 -0.03 0.06 0.45 -0.67 0.09 0.01 0.1 -0.27 0.03zm0.2 -0.6l0.05 0.37 0.59 -0.08 -0.04 -0.25 -0.22 0.01c-0.09,0.01 -0.16,0.01 -0.23,0 -0.06,-0.01 -0.11,-0.03 -0.15,-0.05zm0.34 1.32c-0.08,0 -0.14,-0.01 -0.2,-0.04 -0.05,-0.02 -0.09,-0.06 -0.12,-0.11 -0.03,-0.04 -0.04,-0.1 -0.04,-0.16 0,-0.06 0.02,-0.11 0.05,-0.16 0.03,-0.04 0.07,-0.08 0.12,-0.1 0.06,-0.03 0.12,-0.04 0.19,-0.04l0.06 0c0.07,0.01 0.14,0.02 0.19,0.05 0.06,0.02 0.1,0.06 0.13,0.11 0.03,0.05 0.04,0.1 0.04,0.16 0,0.06 -0.02,0.11 -0.05,0.16 -0.03,0.04 -0.07,0.08 -0.13,0.1 -0.06,0.03 -0.12,0.04 -0.2,0.04l-0.04 -0.01zm0.05 -0.09c0.09,0 0.16,-0.02 0.21,-0.05 0.05,-0.04 0.07,-0.09 0.07,-0.15 0,-0.07 -0.02,-0.12 -0.07,-0.15 -0.04,-0.04 -0.11,-0.06 -0.2,-0.07l-0.05 0c-0.09,0 -0.16,0.02 -0.21,0.05 -0.05,0.04 -0.07,0.09 -0.08,0.15 0,0.07 0.02,0.12 0.07,0.15 0.05,0.04 0.11,0.06 0.2,0.06l0.06 0.01zm0.15 0.86l0.07 -0.36 -0.23 -0.04 -0.03 0.18c-0.02,0.08 -0.05,0.14 -0.09,0.18 -0.05,0.03 -0.11,0.04 -0.17,0.03 -0.07,-0.01 -0.12,-0.04 -0.15,-0.09 -0.04,-0.05 -0.05,-0.12 -0.03,-0.19l0.05 -0.29 0.74 0.13 -0.08 0.46 -0.08 -0.01zm-0.24 -0.42l-0.28 -0.05 -0.03 0.18c-0.01,0.05 0,0.09 0.02,0.12 0.02,0.04 0.05,0.06 0.09,0.06 0.05,0.01 0.08,0 0.11,-0.02 0.03,-0.02 0.05,-0.05 0.06,-0.1l0.03 -0.19zm-0.68 1.1l0.04 -0.09 0.33 0.11 0.12 -0.36 -0.33 -0.12 0.03 -0.09 0.72 0.24 -0.03 0.1 -0.31 -0.11 -0.13 0.37 0.31 0.1 -0.03 0.1 -0.72 -0.25zm0.24 0.52l-0.09 0.17c-0.04,0.07 -0.09,0.11 -0.15,0.13 -0.05,0.02 -0.11,0.01 -0.17,-0.02 -0.06,-0.04 -0.09,-0.09 -0.11,-0.14 -0.01,-0.06 0,-0.13 0.04,-0.19l0.14 -0.26 0.66 0.38 -0.05 0.09 -0.27 -0.16zm-0.07 -0.04l-0.24 -0.14 -0.1 0.16c-0.02,0.04 -0.03,0.08 -0.02,0.12 0.01,0.04 0.03,0.07 0.07,0.09 0.04,0.02 0.08,0.03 0.11,0.02 0.03,-0.02 0.06,-0.04 0.09,-0.08l0.09 -0.17zm-0.63 0.37l0.05 -0.09 0.66 0.38 -0.05 0.09 -0.66 -0.38zm0.11 1.04l-0.06 0.08 -0.58 -0.5 0.07 -0.07 0.44 0.38 -0.19 -0.67 0.06 -0.07 0.57 0.5 -0.06 0.07 -0.44 -0.38 0.19 0.66zm0.17 0.11c-0.04,-0.03 -0.05,-0.06 -0.05,-0.1 0,-0.04 0.01,-0.08 0.04,-0.11 0.03,-0.04 0.07,-0.06 0.11,-0.06 0.03,-0.01 0.07,0 0.1,0.03l-0.05 0.06c-0.02,-0.02 -0.04,-0.02 -0.06,-0.02 -0.02,0 -0.03,0.01 -0.05,0.03 -0.02,0.02 -0.02,0.04 -0.02,0.05 0,0.02 0.01,0.04 0.03,0.06l-0.05 0.06zm-1.93 0.33l0.08 -0.05 0.19 0.29 0.33 -0.21 -0.19 -0.29 0.08 -0.06 0.41 0.64 -0.08 0.06 -0.18 -0.28 -0.32 0.21 0.17 0.27 -0.08 0.06 -0.41 -0.64zm-0.52 0.45l0.29 -0.13 -0.01 -0.21 0.09 -0.04 0.05 0.81 -0.08 0.04 -0.58 -0.58 0.1 -0.04 0.14 0.15zm0.3 -0.04l-0.23 0.11 0.26 0.27 -0.03 -0.38zm-0.94 0.74l0.23 -0.07 -0.18 -0.65 0.09 -0.03 0.19 0.65 0.23 -0.06 0.02 0.07 -0.56 0.17 -0.02 -0.08zm-0.57 -0.29l-0.12 0.46 -0.11 0.02 0.18 -0.67c0.02,-0.04 0.03,-0.07 0.04,-0.09 0.02,-0.02 0.03,-0.03 0.05,-0.04 0.02,-0.01 0.05,-0.02 0.08,-0.03 0.03,0 0.05,0 0.05,0l0.01 0.08 -0.05 0.01c-0.03,0 -0.06,0.02 -0.07,0.06l-0.01 0.03 -0.01 0.05 0.32 0.52 -0.11 0.01 -0.25 -0.41zm-0.61 0.01l0.01 -0.29 0.1 0 -0.02 0.76 -0.28 -0.01c-0.08,0 -0.14,-0.03 -0.19,-0.07 -0.05,-0.04 -0.07,-0.1 -0.07,-0.17 0.01,-0.07 0.03,-0.13 0.08,-0.17 0.04,-0.04 0.11,-0.05 0.2,-0.05l0.17 0zm0 0.08l-0.18 0c-0.05,0 -0.09,0.01 -0.12,0.03 -0.03,0.03 -0.05,0.06 -0.05,0.11 0,0.05 0.02,0.08 0.04,0.11 0.03,0.03 0.07,0.04 0.12,0.05l0.19 0 0 -0.3zm-0.99 -0.28l0.32 0.06 0.1 -0.19 0.1 0.02 -0.41 0.7 -0.09 -0.02 -0.15 -0.8 0.1 0.02 0.03 0.21zm0.27 0.13l-0.25 -0.04 0.06 0.37 0.19 -0.33zm-1.34 0.13l0.24 -0.72 0.09 0.03 -0.21 0.65 0.26 0.08 0.1 -0.28c0.04,-0.09 0.08,-0.16 0.11,-0.2 0.03,-0.05 0.06,-0.07 0.1,-0.09 0.03,-0.01 0.07,-0.01 0.12,0.01l0.03 0.01 -0.02 0.07 -0.02 0c-0.03,-0.01 -0.06,-0.01 -0.08,0 -0.03,0.02 -0.05,0.04 -0.07,0.08 -0.02,0.03 -0.05,0.09 -0.08,0.17l-0.13 0.34 -0.44 -0.15zm-0.28 -0.47l-0.16 -0.1c-0.07,-0.04 -0.11,-0.08 -0.13,-0.14 -0.02,-0.06 -0.02,-0.11 0.02,-0.17 0.03,-0.06 0.08,-0.1 0.14,-0.11 0.06,-0.02 0.12,0 0.19,0.03l0.25 0.15 -0.38 0.66 -0.08 -0.05 0.15 -0.27zm0.04 -0.07l0.14 -0.25 -0.16 -0.09c-0.04,-0.03 -0.08,-0.03 -0.12,-0.02 -0.03,0.01 -0.06,0.03 -0.08,0.07 -0.03,0.03 -0.03,0.07 -0.02,0.1 0.01,0.04 0.04,0.07 0.08,0.09l0.16 0.1zm-0.81 -0.99l0.08 0.06 -0.22 0.27 0.3 0.24 0.22 -0.28 0.08 0.07 -0.47 0.59 -0.08 -0.06 0.2 -0.26 -0.3 -0.23 -0.2 0.25 -0.08 -0.06 0.47 -0.59zm-0.83 -0.34c0.06,-0.05 0.11,-0.08 0.17,-0.1 0.06,-0.02 0.11,-0.03 0.16,-0.02 0.06,0.02 0.1,0.05 0.15,0.09 0.04,0.04 0.06,0.09 0.07,0.15 0.02,0.05 0.01,0.1 -0.01,0.16 -0.02,0.06 -0.06,0.11 -0.11,0.16l-0.04 0.04c-0.05,0.05 -0.11,0.08 -0.17,0.1 -0.06,0.02 -0.11,0.03 -0.17,0.01 -0.05,-0.01 -0.1,-0.04 -0.14,-0.08 -0.04,-0.04 -0.07,-0.09 -0.08,-0.15 -0.01,-0.05 0,-0.11 0.02,-0.16 0.03,-0.06 0.06,-0.11 0.12,-0.16l0.03 -0.04zm0.04 0.11c-0.07,0.06 -0.11,0.12 -0.12,0.18 -0.01,0.06 0.01,0.11 0.06,0.16 0.04,0.05 0.09,0.07 0.15,0.06 0.06,-0.01 0.12,-0.04 0.18,-0.1l0.04 -0.04c0.07,-0.06 0.1,-0.12 0.12,-0.18 0.01,-0.06 -0.01,-0.11 -0.06,-0.16 -0.04,-0.05 -0.09,-0.07 -0.15,-0.06 -0.06,0.01 -0.12,0.04 -0.18,0.1l-0.04 0.04zm-0.61 -0.21l0.39 -0.54 -0.66 0.12 -0.07 -0.11 0.64 -0.41 0.05 0.09 -0.24 0.16 -0.28 0.16 0.65 -0.12 0.04 0.06 -0.38 0.54 0.26 -0.18 0.25 -0.16 0.06 0.09 -0.64 0.41 -0.07 -0.11zm-0.18 -1.27l-0.48 0 -0.04 -0.11 0.69 0.02c0.04,0 0.07,0 0.09,0.01 0.03,0.01 0.04,0.02 0.06,0.04 0.02,0.02 0.03,0.04 0.04,0.07 0.01,0.02 0.02,0.04 0.02,0.05l-0.08 0.03 -0.01 -0.05c-0.02,-0.03 -0.04,-0.05 -0.08,-0.06l-0.03 0 -0.05 0 -0.43 0.45 -0.04 -0.11 0.34 -0.34zm-0.72 -1.51l0.04 0.36 0.23 -0.03 -0.02 -0.19c-0.01,-0.08 0,-0.14 0.03,-0.19 0.04,-0.05 0.09,-0.08 0.16,-0.08 0.06,-0.01 0.12,0 0.17,0.04 0.04,0.04 0.07,0.1 0.08,0.18l0.04 0.28 -0.75 0.1 -0.06 -0.46 0.08 -0.01zm0.35 0.32l0.28 -0.04 -0.02 -0.18c0,-0.05 -0.02,-0.08 -0.05,-0.11 -0.03,-0.02 -0.07,-0.03 -0.11,-0.02 -0.05,0 -0.08,0.02 -0.1,0.05 -0.02,0.03 -0.03,0.07 -0.02,0.11l0.02 0.19zm0.02 -0.78l0.3 0.01 0 0.1 -0.76 -0.02 0.01 -0.28c0,-0.08 0.02,-0.15 0.07,-0.19 0.04,-0.05 0.1,-0.07 0.17,-0.07 0.07,0 0.13,0.03 0.16,0.08 0.04,0.04 0.06,0.11 0.06,0.19l-0.01 0.18zm-0.08 0l0.01 -0.18c0,-0.05 -0.01,-0.09 -0.04,-0.12 -0.02,-0.03 -0.06,-0.05 -0.11,-0.05 -0.04,0 -0.08,0.01 -0.11,0.04 -0.02,0.03 -0.04,0.07 -0.04,0.12l-0.01 0.18 0.3 0.01zm-0.22 -1.25l0.02 -0.1 0.74 0.17 -0.02 0.1 -0.57 -0.13 0.49 0.5 -0.03 0.09 -0.74 -0.17 0.03 -0.09 0.57 0.13 -0.49 -0.5zm0.33 -0.97l0.71 0.28 -0.04 0.09 -0.63 -0.25 -0.1 0.26 0.28 0.12c0.09,0.04 0.15,0.08 0.2,0.11 0.04,0.03 0.06,0.07 0.07,0.11 0.02,0.03 0.01,0.07 0,0.12l-0.02 0.03 -0.07 -0.03 0 -0.02c0.01,-0.03 0.01,-0.06 0,-0.08 -0.01,-0.02 -0.03,-0.05 -0.07,-0.07 -0.03,-0.02 -0.09,-0.05 -0.16,-0.09l-0.34 -0.15 0.17 -0.43zm0.48 -0.83l0.64 0.4 -0.06 0.09 -0.57 -0.37 -0.14 0.23 0.24 0.18c0.08,0.06 0.14,0.11 0.18,0.15 0.03,0.04 0.05,0.08 0.05,0.11 0.01,0.04 0,0.08 -0.03,0.12l-0.02 0.03 -0.07 -0.04 0.01 -0.02c0.02,-0.03 0.02,-0.06 0.02,-0.08 -0.01,-0.03 -0.03,-0.05 -0.06,-0.08 -0.03,-0.03 -0.07,-0.07 -0.14,-0.12l-0.31 -0.21 0.26 -0.39zm0.51 -0.64l0.06 -0.08 0.58 0.5 -0.07 0.07 -0.44 -0.38 0.2 0.67 -0.07 0.07 -0.57 -0.49 0.06 -0.08 0.44 0.38 -0.19 -0.66zm1 -0.17l-0.24 0.21 0.08 0.19 -0.08 0.07 -0.28 -0.76 0.07 -0.06 0.71 0.39 -0.07 0.06 -0.19 -0.1zm-0.27 0.13l0.19 -0.17 -0.33 -0.19 0.14 0.36zm1.17 -0.47l-0.09 0.05 -0.17 -0.3 -0.33 0.19 0.17 0.3 -0.09 0.05 -0.38 -0.65 0.09 -0.05 0.16 0.28 0.34 -0.19 -0.17 -0.28 0.09 -0.05 0.38 0.65zm0.43 -0.91l-0.23 0.09 0.25 0.63 -0.09 0.04 -0.25 -0.63 -0.23 0.09 -0.03 -0.08 0.55 -0.22 0.03 0.08zm0.59 0.22l0.07 -0.47 0.11 -0.03 -0.12 0.68c-0.01,0.04 -0.02,0.07 -0.03,0.09 -0.01,0.02 -0.03,0.04 -0.04,0.05 -0.02,0.02 -0.05,0.03 -0.08,0.03 -0.02,0.01 -0.04,0.01 -0.05,0.01l-0.02 -0.08 0.05 -0.01c0.04,0 0.06,-0.03 0.07,-0.07l0.01 -0.03 0 -0.04 -0.37 -0.49 0.11 -0.03 0.29 0.39z"/>
  <path class="fil2" d="M5.42 0.19c0.04,0 0.08,0.03 0.08,0.08 0,0.05 -0.04,0.09 -0.08,0.09 -0.05,0 -0.09,-0.04 -0.09,-0.09 0,-0.05 0.04,-0.08 0.09,-0.08z"/>
 </g>
</svg>
